<svg xmlns="http://www.w3.org/2000/svg" viewBox="0 0 64 64" fill="none">
  <defs>
    <linearGradient id="bg" x1="0" y1="0" x2="64" y2="64" gradientUnits="userSpaceOnUse">
      <stop offset="0%" stop-color="#1e3a5f"/>
      <stop offset="100%" stop-color="#0a1628"/>
    </linearGradient>
    <linearGradient id="icon" x1="16" y1="16" x2="48" y2="48" gradientUnits="userSpaceOnUse">
      <stop offset="0%" stop-color="#60a5fa"/>
      <stop offset="100%" stop-color="#22d3ee"/>
    </linearGradient>
  </defs>
  <rect width="64" height="64" rx="14" fill="url(#bg)"/>
  <g transform="translate(12, 12) scale(1.667)" stroke="url(#icon)" stroke-width="1.8" stroke-linecap="round" stroke-linejoin="round">
    <path d="M10.5 21l5.25-11.25L21 21m-9-3h7.5M3 5.621a48.474 48.474 0 016-.371m0 0c1.12 0 2.233.038 3.334.114M9 5.25V3m3.334 2.364V3M3 11.25h4.5m0 0V9.75m0 1.5v1.5m6-1.5h4.5m0 0V9.75m0 1.5v1.5"/>
  </g>
</svg>
